<svg width="56" height="56" viewBox="0 0 56 56" fill="none" xmlns="http://www.w3.org/2000/svg">
<path d="M50.75 28H42V20C42 15.5875 45.1391 12 49 12H49.875C51.3297 12 52.5 10.6625 52.5 9V3C52.5 1.3375 51.3297 0 49.875 0H49C39.3312 0 31.5 8.95 31.5 20V50C31.5 53.3125 33.8516 56 36.75 56H50.75C53.6484 56 56 53.3125 56 50V34C56 30.6875 53.6484 28 50.75 28ZM19.25 28H10.5V20C10.5 15.5875 13.6391 12 17.5 12H18.375C19.8297 12 21 10.6625 21 9V3C21 1.3375 19.8297 0 18.375 0H17.5C7.83125 0 0 8.95 0 20V50C0 53.3125 2.35156 56 5.25 56H19.25C22.1484 56 24.5 53.3125 24.5 50V34C24.5 30.6875 22.1484 28 19.25 28Z" fill="#044040"/>
</svg>
